<svg width="44" height="42" viewBox="0 0 44 42" fill="none" xmlns="http://www.w3.org/2000/svg">
<path d="M21.9951 29.186C18.059 29.186 14.7756 26.3939 13.9961 22.6841H0.90155C1.82713 33.4718 10.8589 41.936 21.8587 41.936C32.8585 41.936 41.9 33.4718 42.8159 22.6841H29.9941C29.2147 26.4036 25.9313 29.186 21.9951 29.186Z" fill="white"/>
<path d="M26.6718 41.3893C35.4015 39.3392 42.0364 31.8512 42.8159 22.6841H37.6521C37.1357 31.0018 32.7806 38.0505 26.6718 41.3893Z" fill="#DFDFDF"/>
<path d="M26.8179 20.9951C26.8081 20.9951 26.8081 20.9951 26.8179 20.9951C26.8081 20.3996 26.701 19.8334 26.5061 19.3062C25.8241 17.4708 24.0606 16.1724 21.9951 16.1724C19.9296 16.1724 18.1661 17.4806 17.4841 19.3062C17.2892 19.8334 17.1821 20.3996 17.1821 20.9951H17.1918C17.1918 21.5906 17.299 22.1569 17.4938 22.6841C18.1759 24.5194 19.9393 25.8179 22.0048 25.8179C24.0704 25.8179 25.8338 24.5097 26.5158 22.6841C26.7107 22.1666 26.8179 21.5906 26.8179 20.9951Z" fill="white"/>
<path d="M22.0049 12.814C25.941 12.814 29.2244 15.6061 30.0038 19.3159H43.0984C42.1728 8.51843 33.1411 0.0541992 22.1315 0.0541992C11.1219 0.0541992 2.09993 8.51843 1.17435 19.3062H14.0059C14.7853 15.5964 18.0687 12.814 22.0049 12.814Z" fill="#FF1C1C"/>
<path d="M37.6521 19.3062H43.0887C42.2898 9.98285 35.4307 2.38749 26.4769 0.503296C32.6929 3.79331 37.126 10.9103 37.6521 19.3062Z" fill="#DF1818"/>
</svg>
