<svg width="42" height="56" viewBox="0 0 42 56" fill="none" xmlns="http://www.w3.org/2000/svg">
<path d="M37.7891 6.46452C36.9072 3.97965 34.8405 2.09294 32.2656 1.41846C29.7887 0.767904 25.874 0 21.2165 0C21.1458 0 21.0752 0 21.0068 0C16.249 0.0410156 12.25 0.758789 9.73437 1.41846C7.1595 2.09294 5.09277 3.97965 4.21094 6.46452C0.920573 15.7021 0.0364583 35.2871 0 36.1667C0 47.4733 9.02799 56 21 56C32.972 56 42 47.4733 42 36.1165C41.9635 35.2871 41.0794 15.7021 37.7891 6.46452ZM11.6667 44.3333H9.33333C8.68848 44.3333 8.16667 43.8115 8.16667 43.1667V40.8333H5.83333C5.18848 40.8333 4.66667 40.3115 4.66667 39.6667V37.3333C4.66667 36.6885 5.18848 36.1667 5.83333 36.1667H8.16667V33.8333C8.16667 33.1885 8.68848 32.6667 9.33333 32.6667H11.6667C12.3115 32.6667 12.8333 33.1885 12.8333 33.8333V36.1667H15.1667C15.8115 36.1667 16.3333 36.6885 16.3333 37.3333V39.6667C16.3333 40.3115 15.8115 40.8333 15.1667 40.8333H12.8333V43.1667C12.8333 43.8115 12.3115 44.3333 11.6667 44.3333ZM17.5 49H15.1667C14.5218 49 14 48.4782 14 47.8333C14 47.1885 14.5218 46.6667 15.1667 46.6667H17.5C18.1449 46.6667 18.6667 47.1885 18.6667 47.8333C18.6667 48.4782 18.1449 49 17.5 49ZM10.3473 29.2749C7.58561 28.6095 5.68747 26.0905 5.83561 23.2855C6.14551 18.1369 8.13249 11.6006 8.2168 11.3249C8.86165 8.82633 10.4476 6.87354 12.446 6.1512C14.3509 5.46077 17.4225 4.67464 21.0068 4.66667C24.5866 4.70882 27.6491 5.46191 29.554 6.1512C31.5524 6.87353 33.1383 8.82633 33.7969 11.375C33.8675 11.6006 35.8545 18.1369 36.1644 23.2627C36.3125 26.0905 34.4144 28.6095 31.6527 29.2749C28.7451 29.9779 25.1608 30.3333 21 30.3333C16.8392 30.3333 13.2549 29.9779 10.3473 29.2749ZM26.8333 49H24.5C23.8551 49 23.3333 48.4782 23.3333 47.8333C23.3333 47.1885 23.8551 46.6667 24.5 46.6667H26.8333C27.4782 46.6667 28 47.1885 28 47.8333C28 48.4782 27.4782 49 26.8333 49ZM29.1667 44.3333C27.8792 44.3333 26.8333 43.2863 26.8333 42C26.8333 40.7137 27.8792 39.6667 29.1667 39.6667C30.4541 39.6667 31.5 40.7137 31.5 42C31.5 43.2863 30.4541 44.3333 29.1667 44.3333ZM33.8333 39.6667C31.9033 39.6667 30.3333 38.0967 30.3333 36.1667C30.3333 34.2367 31.9033 32.6667 33.8333 32.6667C35.7633 32.6667 37.3333 34.2367 37.3333 36.1667C37.3333 38.0967 35.7633 39.6667 33.8333 39.6667Z" fill="white"/>
</svg>
